<svg width="40" height="40" viewBox="0 0 40 40" fill="none" xmlns="http://www.w3.org/2000/svg">
<g clip-path="url(#clip0)">
<path d="M4.35254 3.66748H35.6479V19.2337H4.35254V3.66748Z" fill="#FFF5F5"/>
<path d="M4.35254 3.66748H19.9187V19.2337H4.35254V3.66748Z" fill="#0072FC"/>
<path d="M12.5807 8.43059L13.2686 10.0491C13.3445 10.2278 13.5199 10.3438 13.7141 10.3438H15.0176C15.452 10.3438 15.6665 10.8718 15.3552 11.1747L14.3582 12.1452C14.2418 12.2586 14.1899 12.4227 14.2202 12.5824L14.5665 14.4065C14.6459 14.825 14.1852 15.1347 13.8277 14.903L12.3984 13.9768C12.2382 13.8731 12.032 13.8731 11.8719 13.9768L10.4426 14.903C10.0851 15.1347 9.6243 14.825 9.70375 14.4065L10.05 12.5824C10.0803 12.4228 10.0285 12.2586 9.91203 12.1452L8.915 11.1747C8.60367 10.8718 8.8182 10.3438 9.25266 10.3438H10.5562C10.7503 10.3438 10.9257 10.2278 11.0016 10.0491L11.6895 8.43059C11.8567 8.03762 12.4137 8.03762 12.5807 8.43059Z" fill="#FFF5F5"/>
<path d="M4.35254 19.2335V31.6954C4.35254 31.9998 4.52387 32.2782 4.79551 32.4155L19.6364 39.9132C19.8651 40.0288 20.1352 40.0288 20.3639 39.9132L35.2049 32.4156C35.4765 32.2783 35.6479 31.9998 35.6479 31.6955V19.2335H4.35254Z" fill="#FC2B3A"/>
<path d="M4.35254 3.66748H35.6479V5.05295H4.35254V3.66748Z" fill="#EFE2DD"/>
<path d="M4.35254 3.66748H19.9187V5.05295H4.35254V3.66748Z" fill="#0068B5"/>
<path d="M35.6475 1.22241V3.66733H4.35215V1.22241H35.6475Z" fill="#D9E7EC"/>
<path d="M4.35254 2.68945H35.6479V3.66742H4.35254V2.68945Z" fill="#C5D3DD"/>
<path d="M36.4543 0H37.2857C37.7312 0 38.0925 0.361172 38.0925 0.806797V4.08313C38.0925 4.52867 37.7313 4.88992 37.2857 4.88992H36.4543C36.0087 4.88992 35.6475 4.52875 35.6475 4.08313V0.806797C35.6475 0.361172 36.0086 0 36.4543 0Z" fill="#D9E7EC"/>
<path d="M38.0922 4.08313V0.806797C38.0922 0.361172 37.7311 0 37.2854 0H37.1143V4.88992H37.2854C37.7311 4.88992 38.0922 4.52867 38.0922 4.08313Z" fill="#C5D3DD"/>
<path d="M2.71402 0H3.54543C3.99098 0 4.35215 0.361172 4.35215 0.806797V4.08313C4.35215 4.52867 3.99098 4.88992 3.54535 4.88992H2.71402C2.26848 4.88992 1.90723 4.52875 1.90723 4.08313V0.806797C1.90723 0.361172 2.2684 0 2.71402 0V0Z" fill="#D9E7EC"/>
<path d="M4.35199 4.08313V0.806797C4.35199 0.361172 3.99082 0 3.5452 0H3.37402V4.88992H3.5452C3.99082 4.88992 4.35199 4.52867 4.35199 4.08313Z" fill="#C5D3DD"/>
</g>
<defs>
<clipPath id="clip0">
<rect width="40" height="40" fill="white"/>
</clipPath>
</defs>
</svg>
