<svg width="12" height="12" viewBox="0 0 12 12" fill="none" xmlns="http://www.w3.org/2000/svg">
<path d="M4.93873 6.00085L0.219883 1.282C-0.0732937 0.989074 -0.0732937 0.513786 0.219883 0.220859C0.513061 -0.0723177 0.987847 -0.0723177 1.28102 0.220859L5.99988 4.93971L10.719 0.220859C11.0122 -0.0723177 11.4869 -0.0723177 11.7801 0.220859C12.0733 0.513786 12.0733 0.989074 11.7801 1.282L7.06102 6.00085L11.7801 10.7197C12.0733 11.0126 12.0733 11.4879 11.7801 11.7808C11.6335 11.9272 11.4414 12.0005 11.2495 12.0005C11.0577 12.0005 10.8656 11.9272 10.719 11.7806L5.99988 7.06174L1.28102 11.7806C1.13444 11.9272 0.94232 12.0005 0.750454 12.0005C0.558588 12.0005 0.366472 11.9272 0.219883 11.7806C-0.0732937 11.4877 -0.0732937 11.0124 0.219883 10.7195L4.93873 6.00085Z" fill="#505050"/>
</svg>
