<svg width="11" height="12" viewBox="0 0 11 12" fill="none" xmlns="http://www.w3.org/2000/svg">
<path d="M5.36515 0.730093C5.36515 0.730093 5.36514 0.730091 5.36514 0.730091L5.3827 0.657146M5.36515 0.730093L5.38271 0.657148M5.36515 0.730093C5.75145 0.823093 6.19919 0.955991 6.70969 1.13047C6.71574 1.13254 6.72181 1.13462 6.72788 1.1367C6.77395 1.15249 6.82053 1.16862 6.86761 1.18508L6.86964 1.18578C6.88696 1.19175 6.90409 1.19764 6.92103 1.20345C7.01087 1.23424 7.09527 1.26267 7.17413 1.28867C7.17456 1.28881 7.17499 1.28895 7.17543 1.2891C7.26209 1.31766 7.34203 1.34329 7.41512 1.3659C7.41533 1.36596 7.41553 1.36603 7.41573 1.36609C7.46566 1.38153 7.51239 1.39557 7.55588 1.40817C7.59116 1.4184 7.62515 1.42793 7.65767 1.43666C7.65776 1.43669 7.65785 1.43671 7.65794 1.43673C7.70633 1.44972 7.75145 1.46092 7.79274 1.46999C7.81313 1.47448 7.8365 1.47936 7.86179 1.48384L5.36515 0.730093ZM5.3827 0.657146C5.3827 0.657146 5.3827 0.657148 5.38271 0.657148M5.3827 0.657146C4.91795 0.553851 4.49777 0.499782 4.12499 0.499751C4.12488 0.499751 4.12477 0.499751 4.12466 0.499751L3.45914 0.499751L3.25837 0.499751C3.23926 0.499751 3.22019 0.499901 3.20118 0.500208C2.70334 0.50822 2.24247 0.622643 1.89888 0.921457C1.88447 0.933991 1.8704 0.94673 1.85666 0.959669M5.3827 0.657146L5.48216 0.243979M5.38271 0.657148L5.48216 0.243979M5.38271 0.657148C5.7992 0.749719 6.25149 0.881827 6.73753 1.05001L6.74847 1.05379L6.75923 1.05808L6.75927 1.0581C6.75953 1.0582 6.76079 1.0587 6.76333 1.05966L6.77492 1.06402L6.81426 1.07844C6.83598 1.08631 6.8628 1.09594 6.8948 1.10732C6.89536 1.10752 6.89592 1.10772 6.89649 1.10792C6.91247 1.1136 6.92974 1.11972 6.94829 1.12628C7.06343 1.16696 7.14655 1.19627 7.19976 1.21471L7.20129 1.21524C7.24914 1.232 7.32699 1.25767 7.43829 1.29307L7.439 1.2933C7.54631 1.32762 7.62361 1.3497 7.67555 1.36217L7.67587 1.36224C7.73024 1.37534 7.79639 1.38853 7.87517 1.40134C7.94726 1.41303 7.99415 1.41633 8.02068 1.41633L8.02091 1.41633L8.24985 1.41633L8.74985 1.41633L8.74985 1.49955M5.48216 0.243979L7.86193 1.48386C7.91034 1.49243 7.96575 1.49953 8.02068 1.49955C8.02076 1.49955 8.02083 1.49955 8.02091 1.49955L8.24985 1.49955L8.74985 1.49955M5.48216 0.243979L1.85666 0.959669M8.74985 1.49955L9.23414 1.49955M8.74985 1.49955L8.74985 1.91633L8.74985 1.98388M9.23414 1.49955L8.74985 2.76528M9.23414 1.49955C9.12937 1.54719 9.03364 1.61432 8.94933 1.69856C8.86472 1.78307 8.79749 1.879 8.74985 1.98388M9.23414 1.49955L8.74985 1.98388M8.74985 1.98388C8.69544 2.10367 8.66658 2.23514 8.66658 2.37464C8.66658 2.51417 8.69547 2.64557 8.74985 2.76528M8.74985 2.76528L8.74985 6.49952L8.74985 6.91643L10.0833 6.91643C10.2035 6.91643 10.2926 6.87962 10.3781 6.79418L10.7315 7.14789M8.74985 2.76528C8.79747 2.87009 8.86464 2.96594 8.94908 3.05039C9.13007 3.23143 9.36331 3.33297 9.62494 3.33297C9.88671 3.33297 10.1197 3.23135 10.3006 3.05064L10.3008 3.05049C10.3853 2.96601 10.4524 2.8702 10.5 2.76547L10.5 6.4997C10.5 6.62004 10.4632 6.709 10.3778 6.79443L10.7315 7.14789M10.7315 7.14789C10.5524 7.32678 10.3364 7.41643 10.0833 7.41643L8.12107 7.41643L10.7315 7.14789ZM10.5 1.98375L10.5 1.91633C10.5 1.79595 10.4633 1.70716 10.378 1.62185C10.378 1.62182 10.3779 1.6218 10.3779 1.62177M10.5 1.98375L7.03264 0.713093C7.58649 0.904081 7.91586 0.999549 8.02091 0.999549L10.0833 0.999549C10.3364 0.999549 10.5523 1.08915 10.7315 1.26822L10.3779 1.62177M10.5 1.98375C10.4524 1.87896 10.3852 1.78311 10.3007 1.69866C10.2164 1.61435 10.1206 1.54719 10.0158 1.49955M10.5 1.98375L10.0158 1.49955M10.3779 1.62177C10.2923 1.53625 10.2034 1.49955 10.0833 1.49955L10.0158 1.49955M10.3779 1.62177L10.0158 1.49955M7.93834 6.93727L7.84355 7.00052C7.81396 7.02026 7.78367 7.04287 7.75282 7.06791C7.7528 7.06794 7.75277 7.06796 7.75274 7.06798C7.67051 7.13474 7.58427 7.21882 7.49649 7.31219C7.49646 7.31222 7.49643 7.31225 7.4964 7.31228C7.45528 7.35603 7.41382 7.40182 7.37228 7.44882C7.3315 7.49496 7.28874 7.5445 7.24402 7.59739L6.91785 7.32674L7.24385 7.59759C7.16909 7.68602 7.08886 7.78382 7.00324 7.89078L6.67078 7.63115L7.00312 7.89093C6.93173 7.98013 6.85659 8.07569 6.77777 8.17751L6.4451 7.9247M7.93834 6.93727L7.20426 7.01163C7.1183 7.09516 7.02283 7.20019 6.91776 7.32666C6.81273 7.45323 6.73038 7.55464 6.67066 7.63105C6.61101 7.70743 6.53583 7.80536 6.4451 7.9247M7.93834 6.93727L7.76646 6.56394L7.93834 6.93727ZM6.4451 7.9247L6.77773 8.17756M6.4451 7.9247L6.77773 8.17756M6.77773 8.17756C6.76661 8.19192 6.75542 8.2064 6.74416 8.22101C6.69701 8.28196 6.65062 8.34121 6.60497 8.39877C6.60444 8.39945 6.6039 8.40013 6.60336 8.40081C6.39695 8.66101 6.20589 8.88656 6.02997 9.07834L5.72899 8.79127C5.83401 8.6814 6.01783 8.46418 6.28038 8.13957L6.77773 8.17756ZM7.30234 7.64618C7.19874 7.77104 7.12004 7.86805 7.06472 7.9388L7.30234 7.64618ZM7.30234 7.64618C7.40001 7.52862 7.48324 7.43772 7.5527 7.37022L7.55281 7.37012C7.63231 7.29282 7.71789 7.21383 7.80988 7.13306L7.80998 7.13297C7.83908 7.10741 7.86563 7.0865 7.88956 7.06947C7.92385 7.04508 7.95276 7.02865 7.97612 7.01786L7.93876 6.93699L7.30234 7.64618ZM1.85666 0.959669L1.57553 0.65944L1.85661 0.95972C1.51769 1.279 1.38321 1.7197 1.38321 2.19569C1.38321 2.20659 1.38328 2.21752 1.38342 2.22847L1.85666 0.959669ZM6.02965 9.07868C6.02278 9.08617 6.01594 9.09361 6.00911 9.10099C5.85843 9.25971 5.76068 9.46534 5.69498 9.68448C5.69497 9.68451 5.69496 9.68454 5.69495 9.68458C5.66767 9.7756 5.64592 9.86896 5.6282 9.96224L5.6282 9.96225C5.59193 10.1532 5.54709 10.3515 5.49352 10.5571C5.4935 10.5572 5.49348 10.5572 5.49347 10.5573C5.47073 10.6446 5.44641 10.7332 5.42052 10.8231L5.42049 10.8232C5.35076 11.0655 5.24395 11.2432 5.11031 11.3747L6.02965 9.07868ZM6.09058 9.1366C6.21197 9.00959 6.40798 8.77688 6.66913 8.45401L6.66914 8.45401L6.67109 8.45157C6.69171 8.42575 6.73911 8.36402 6.80942 8.27164L7.13997 8.52651C6.86305 8.88456 6.60765 9.1902 6.37364 9.44325L6.09058 9.1366ZM6.8098 8.27114C6.8204 8.25722 6.83152 8.24259 6.84315 8.22729L6.8098 8.27114ZM0.28628 4.84533L0.703013 4.84533C0.70304 4.97343 0.7206 5.10216 0.751365 5.23004C0.764899 5.2863 0.780988 5.34239 0.799265 5.39819L0.799369 5.39851L0.28628 4.84533Z" fill="#E61E19" stroke="#E61E19"/>
</svg>
