<svg width="11" height="12" viewBox="0 0 11 12" fill="none" xmlns="http://www.w3.org/2000/svg">
<path d="M5.63485 11.2699C5.63485 11.2699 5.63486 11.2699 5.63486 11.2699L5.6173 11.3429M5.63485 11.2699L5.61729 11.3429M5.63485 11.2699C5.24855 11.1769 4.80081 11.044 4.29031 10.8695C4.28426 10.8675 4.27819 10.8654 4.27212 10.8633C4.22605 10.8475 4.17947 10.8314 4.13238 10.8149L4.13036 10.8142C4.11304 10.8082 4.09591 10.8024 4.07897 10.7966C3.98913 10.7658 3.90472 10.7373 3.82587 10.7113C3.82544 10.7112 3.825 10.711 3.82457 10.7109C3.73791 10.6823 3.65797 10.6567 3.58487 10.6341C3.58467 10.634 3.58447 10.634 3.58427 10.6339C3.53434 10.6185 3.48761 10.6044 3.44412 10.5918C3.40883 10.5816 3.37484 10.5721 3.34233 10.5633C3.34224 10.5633 3.34215 10.5633 3.34206 10.5633C3.29367 10.5503 3.24855 10.5391 3.20726 10.53C3.18687 10.5255 3.16349 10.5206 3.13821 10.5162L5.63485 11.2699ZM5.6173 11.3429C5.6173 11.3429 5.61729 11.3429 5.61729 11.3429M5.6173 11.3429C6.08205 11.4461 6.50223 11.5002 6.87501 11.5002C6.87512 11.5002 6.87523 11.5002 6.87534 11.5002H7.54086H7.74163C7.76074 11.5002 7.77981 11.5001 7.79882 11.4998C8.29666 11.4918 8.75753 11.3774 9.10112 11.0785C9.11553 11.066 9.1296 11.0533 9.14334 11.0403M5.6173 11.3429L5.51783 11.756M5.61729 11.3429L5.51783 11.756M5.61729 11.3429C5.20079 11.2503 4.74851 11.1182 4.26247 10.95L4.25153 10.9462L4.24077 10.9419L4.24073 10.9419C4.24046 10.9418 4.23921 10.9413 4.23667 10.9403L4.22508 10.936L4.18574 10.9216C4.16402 10.9137 4.1372 10.9041 4.1052 10.8927C4.10464 10.8925 4.10408 10.8923 4.10351 10.8921C4.08753 10.8864 4.07026 10.8803 4.05171 10.8737C3.93657 10.833 3.85345 10.8037 3.80024 10.7853L3.79871 10.7848C3.75086 10.768 3.67301 10.7423 3.56171 10.7069L3.56099 10.7067C3.45369 10.6724 3.37639 10.6503 3.32445 10.6378L3.32413 10.6378C3.26976 10.6247 3.20361 10.6115 3.12483 10.5987C3.05274 10.587 3.00585 10.5837 2.97931 10.5837H2.97909H2.75015H2.25015V10.5005M5.51783 11.756L3.13807 10.5161C3.08966 10.5076 3.03425 10.5005 2.97931 10.5005C2.97924 10.5005 2.97916 10.5005 2.97909 10.5005H2.75015H2.25015M5.51783 11.756L9.14334 11.0403M2.25015 10.5005H1.76586M2.25015 10.5005V10.0837V10.0161M1.76586 10.5005L2.25015 9.23472M1.76586 10.5005C1.87062 10.4528 1.96636 10.3857 2.05067 10.3014C2.13528 10.2169 2.20251 10.121 2.25015 10.0161M1.76586 10.5005L2.25015 10.0161M2.25015 10.0161C2.30456 9.89633 2.33342 9.76486 2.33342 9.62536C2.33342 9.48583 2.30453 9.35443 2.25015 9.23472M2.25015 9.23472V5.50048V5.08357H0.916683C0.796481 5.08357 0.707434 5.12038 0.621926 5.20582L0.268521 4.85211M2.25015 9.23472C2.20253 9.12991 2.13536 9.03406 2.05092 8.94961C1.86993 8.76857 1.63669 8.66703 1.37506 8.66703C1.11329 8.66703 0.880289 8.76865 0.699379 8.94936L0.699233 8.94951C0.614733 9.03399 0.547593 9.1298 0.5 9.23453V5.5003C0.5 5.37996 0.536791 5.291 0.622173 5.20557L0.268521 4.85211M0.268521 4.85211C0.447568 4.67322 0.663639 4.58357 0.916683 4.58357H2.87893L0.268521 4.85211ZM0.5 10.0162V10.0837C0.5 10.2041 0.536724 10.2928 0.622 10.3782C0.622025 10.3782 0.622049 10.3782 0.622074 10.3782M0.5 10.0162L3.96736 11.2869C3.41351 11.0959 3.08414 11.0005 2.97909 11.0005H0.916683C0.663639 11.0005 0.447669 10.9109 0.268521 10.7318L0.622074 10.3782M0.5 10.0162C0.547615 10.121 0.614782 10.2169 0.69928 10.3013C0.78364 10.3857 0.879412 10.4528 0.984203 10.5005M0.5 10.0162L0.984203 10.5005M0.622074 10.3782C0.70766 10.4637 0.796561 10.5005 0.916683 10.5005H0.984203M0.622074 10.3782L0.984203 10.5005M3.06166 5.06273L3.15645 4.99948C3.18604 4.97974 3.21633 4.95713 3.24718 4.93209C3.2472 4.93206 3.24723 4.93204 3.24726 4.93202C3.32949 4.86526 3.41573 4.78118 3.50351 4.68781C3.50354 4.68778 3.50357 4.68775 3.5036 4.68772C3.54472 4.64397 3.58618 4.59818 3.62772 4.55118C3.6685 4.50504 3.71126 4.4555 3.75598 4.40261L4.08215 4.67326L3.75615 4.40241C3.8309 4.31398 3.91114 4.21618 3.99676 4.10922L4.32922 4.36885L3.99688 4.10907C4.06827 4.01988 4.1434 3.92431 4.22223 3.82249L4.5549 4.0753M3.06166 5.06273L3.79574 4.98837C3.8817 4.90484 3.97717 4.79981 4.08224 4.67334C4.18727 4.54677 4.26962 4.44536 4.32934 4.36895C4.38899 4.29257 4.46417 4.19464 4.5549 4.0753M3.06166 5.06273L3.23354 5.43606L3.06166 5.06273ZM4.5549 4.0753L4.22227 3.82244M4.5549 4.0753L4.22227 3.82244M4.22227 3.82244C4.23339 3.80808 4.24458 3.7936 4.25584 3.779C4.30299 3.71804 4.34938 3.65879 4.39503 3.60123C4.39556 3.60055 4.3961 3.59987 4.39664 3.59919C4.60305 3.33899 4.79411 3.11344 4.97003 2.92166L5.27101 3.20873C5.16599 3.3186 4.98217 3.53582 4.71962 3.86043L4.22227 3.82244ZM3.69766 4.35382C3.80126 4.22896 3.87996 4.13195 3.93527 4.0612L3.69766 4.35382ZM3.69766 4.35382C3.59999 4.47138 3.51676 4.56228 3.4473 4.62978L3.44719 4.62988C3.36769 4.70718 3.28211 4.78617 3.19012 4.86695L3.19002 4.86703C3.16092 4.89259 3.13437 4.9135 3.11044 4.93053C3.07615 4.95492 3.04724 4.97135 3.02388 4.98214L3.06124 5.06301L3.69766 4.35382ZM9.14334 11.0403L9.42447 11.3406L9.14339 11.0403C9.48231 10.721 9.61679 10.2803 9.61679 9.80431C9.61679 9.79341 9.61672 9.78248 9.61657 9.77153L9.14334 11.0403ZM4.97035 2.92132C4.97722 2.91383 4.98406 2.90639 4.99089 2.89901C5.14157 2.74029 5.23932 2.53466 5.30502 2.31552C5.30503 2.31549 5.30504 2.31546 5.30505 2.31543C5.33233 2.2244 5.35408 2.13104 5.3718 2.03776L5.3718 2.03775C5.40807 1.84681 5.45291 1.64853 5.50648 1.4429C5.5065 1.44283 5.50652 1.44276 5.50653 1.4427C5.52927 1.35543 5.55359 1.26683 5.57948 1.17692L5.57951 1.1768C5.64924 0.934487 5.75605 0.756812 5.88969 0.625319L4.97035 2.92132ZM4.90942 2.8634C4.78803 2.99041 4.59202 3.22312 4.33087 3.54599L4.33086 3.54599L4.32891 3.54843C4.30829 3.57425 4.26089 3.63598 4.19058 3.72836L3.86003 3.47349C4.13695 3.11544 4.39235 2.8098 4.62636 2.55676L4.90942 2.8634ZM4.1902 3.72886C4.1796 3.74278 4.16848 3.75741 4.15685 3.77271L4.1902 3.72886ZM10.7137 7.15467H10.297C10.297 7.02657 10.2794 6.89784 10.2486 6.76996C10.2351 6.7137 10.219 6.65761 10.2007 6.60181L10.2006 6.6015L10.7137 7.15467Z" fill="#2E9E4C" stroke="#2FA550"/>
</svg>
