<svg width="24" height="24" viewBox="0 0 24 24" fill="none" xmlns="http://www.w3.org/2000/svg">
<path d="M20 10.7679C21.3333 11.5377 21.3333 13.4623 20 14.2321L10.25 19.8612C8.91667 20.631 7.25 19.6688 7.25 18.1292L7.25 6.87084C7.25 5.33123 8.91667 4.36898 10.25 5.13878L20 10.7679Z" fill="white"/>
<path d="M12 0C5.3832 0 0 5.3832 0 12C0 18.6168 5.3832 24 12 24C18.6168 24 24 18.6168 24 12C24 5.3832 18.6168 0 12 0ZM18.2252 12.3304L9.4252 18.3304C9.3576 18.3764 9.2788 18.4 9.2 18.4C9.136 18.4 9.0716 18.3848 9.0132 18.3536C8.882 18.2844 8.8 18.1484 8.8 18V6C8.8 5.8516 8.882 5.7156 9.0132 5.6464C9.1444 5.5768 9.3028 5.5864 9.4256 5.6696L18.2256 11.6696C18.3344 11.744 18.4 11.8676 18.4 12C18.4 12.1324 18.3344 12.256 18.2252 12.3304Z" fill="#40DF6B"/>
</svg>
