<svg width="22" height="20" viewBox="0 0 22 20" fill="none" xmlns="http://www.w3.org/2000/svg">
<g clip-path="url(#clip0)">
<path d="M7.71442 2.857C6.60959 1.27914 4.43484 0.895671 2.85697 2.0005C1.27911 3.10533 0.895643 5.28009 2.00047 6.85795L9.20218 17.1431C10.307 18.7209 12.4818 19.1044 14.0596 17.9996C15.6375 16.8947 16.021 14.72 14.9161 13.1421L7.71442 2.857Z" fill="white"/>
<path d="M15.0015 3.83693C15.7592 3.30637 16.6967 3.09854 17.6076 3.25917C18.5186 3.41979 19.3284 3.93571 19.859 4.69343C20.6017 5.75423 20.8927 7.06666 20.6678 8.34198C20.4429 9.61731 19.7207 10.7511 18.6599 11.4939L16.9457 12.6941L14.145 8.69438C13.6144 7.93666 13.4066 6.99921 13.5672 6.08827C13.7279 5.17732 14.2438 4.36749 15.0015 3.83693V3.83693Z" fill="white"/>
</g>
<defs>
<clipPath id="clip0">
<rect width="22" height="20" fill="white"/>
</clipPath>
</defs>
</svg>
