<svg width="8" height="8" viewBox="0 0 8 8" fill="none" xmlns="http://www.w3.org/2000/svg">
<path d="M1.65476 5.77433C1.70741 5.80731 1.75655 5.84659 1.80155 5.89159L1.65476 5.77433ZM1.65476 5.77433V3.69245V3.57693H0.92396C0.886935 3.57693 0.868911 3.58428 0.842256 3.61091L0.488851 3.25721M1.65476 5.77433C1.53053 5.69652 1.38674 5.6538 1.23167 5.6538C1.07647 5.6538 0.932741 5.69658 0.808594 5.77432V3.69233C0.808594 3.65518 0.81595 3.63723 0.842503 3.61066L0.488851 3.25721M0.488851 3.25721C0.609045 3.13711 0.754092 3.07693 0.92396 3.07693H2.24121L0.488851 3.25721ZM3.04899 3.1372L2.95645 3.06041C2.92535 3.09722 2.89553 3.13178 2.86702 3.16403C2.83716 3.19782 2.80645 3.23176 2.77521 3.26485C2.7752 3.26486 2.77519 3.26487 2.77518 3.26487C2.71697 3.32653 2.65688 3.38522 2.59696 3.43441C2.59695 3.43441 2.59694 3.43442 2.59693 3.43443C2.57078 3.45589 2.54466 3.47555 2.51873 3.49285L2.43346 3.54974L2.47924 3.64918L2.43335 3.54982L2.15476 4.19245V3.69245H2.3086C2.35987 3.69245 2.41675 3.67799 2.47926 3.64921C2.54174 3.62035 2.60588 3.57709 2.67157 3.51938C2.73729 3.46168 2.79894 3.4048 2.85666 3.34867C2.91437 3.2926 2.97845 3.2221 3.04899 3.1372ZM3.04899 3.1372L2.9565 3.06036L3.21487 2.93286M3.04899 3.1372C3.11949 3.05223 3.17478 2.98415 3.21487 2.93286M3.76391 2.07476L3.48519 1.80891C3.48526 1.80885 3.48532 1.80878 3.48539 1.80871C3.48934 1.80456 3.49328 1.8003 3.49718 1.79592L3.76391 2.07476ZM3.76391 2.07476L3.84701 2.15401M3.76391 2.07476C3.64931 2.19983 3.52401 2.34777 3.38783 2.51949C3.38769 2.51967 3.38754 2.51986 3.38739 2.52005C3.35731 2.55799 3.3267 2.59708 3.29555 2.63735C3.28827 2.64679 3.28103 2.65616 3.27384 2.66546L3.77897 2.05839C3.774 2.06377 3.76901 2.06919 3.764 2.07466L3.84701 2.15401M3.84701 2.15401C3.7765 2.22776 3.65311 2.37359 3.47686 2.59149L3.84701 2.15401ZM3.21487 2.93286L3.12115 2.85967L3.21487 2.93286Z" fill="#40DF6B" stroke="#53E27A"/>
</svg>
